<svg height="512pt" viewBox="0 -5 512 511" width="512pt" xmlns="http://www.w3.org/2000/svg"><path d="m230 69.5-115-69-115 69 115 69zm0 0"/><path d="m100 164.484375-100-60v110l100 60zm0 0"/><path d="m230 104.484375-100 60v110l100-60zm0 0"/><path d="m397 228.5-115 69 115 69 115-69zm0 0"/><path d="m282 442.484375 100 60v-110l-100-60zm0 0"/><path d="m412 502.484375 100-60v-110l-100 60zm0 0"/><path d="m412 183.992188c0 8.285156-6.714844 15-15 15s-15-6.714844-15-15c0-8.285157 6.714844-15 15-15s15 6.714843 15 15zm0 0"/><path d="m412 123.992188c0 8.285156-6.714844 15-15 15s-15-6.714844-15-15c0-8.285157 6.714844-15 15-15s15 6.714843 15 15zm0 0"/><path d="m352 123.992188c0 8.285156-6.714844 15-15 15s-15-6.714844-15-15c0-8.285157 6.714844-15 15-15s15 6.714843 15 15zm0 0"/><path d="m292 123.992188c0 8.285156-6.714844 15-15 15s-15-6.714844-15-15c0-8.285157 6.714844-15 15-15s15 6.714843 15 15zm0 0"/><path d="m130 327.992188c0 8.285156-6.714844 15-15 15s-15-6.714844-15-15c0-8.285157 6.714844-15 15-15s15 6.714843 15 15zm0 0"/><path d="m130 387.992188c0 8.285156-6.714844 15-15 15s-15-6.714844-15-15c0-8.285157 6.714844-15 15-15s15 6.714843 15 15zm0 0"/><path d="m190 387.992188c0 8.285156-6.714844 15-15 15s-15-6.714844-15-15c0-8.285157 6.714844-15 15-15s15 6.714843 15 15zm0 0"/><path d="m250 387.992188c0 8.285156-6.714844 15-15 15s-15-6.714844-15-15c0-8.285157 6.714844-15 15-15s15 6.714843 15 15zm0 0"/></svg>